<svg xmlns="http://www.w3.org/2000/svg" width="32" height="32" viewBox="0 0 32 32"><defs><style>.cls-1{fill:#005a87;fill-rule:evenodd;filter:url(#filter)}</style><filter id="filter" x="1152" y="5461" width="32" height="32" filterUnits="userSpaceOnUse"><feFlood result="flood" flood-color="#ebebeb"/><feComposite result="composite" operator="in" in2="SourceGraphic"/><feBlend result="blend" in2="SourceGraphic"/></filter></defs><path id="linked-in.svg" class="cls-1" d="M1168 5461a16 16 0 1 1-16 16 16 16 0 0 1 16-16zm-8.52 7.46a1.52 1.52 0 0 0-.47 1.11 1.563 1.563 0 0 0 .48 1.15 1.616 1.616 0 0 0 1.16.47 1.546 1.546 0 0 0 1.14-.46 1.57 1.57 0 0 0 0-2.26 1.667 1.667 0 0 0-2.31-.01zM1159 5484h3.27v-12.01H1159V5484zm5.73 0h3.26v-4.36a11.653 11.653 0 0 1 .16-2.5 3.248 3.248 0 0 1 1.12-1.74 3.072 3.072 0 0 1 1.94-.63 2.687 2.687 0 0 1 1.46.38 2.013 2.013 0 0 1 .83 1.11 11.3 11.3 0 0 1 .24 2.93v4.81h3.26v-7.56a4 4 0 0 0-1.35-3.22 5.03 5.03 0 0 0-3.51-1.28 5.188 5.188 0 0 0-1.86.34 10.261 10.261 0 0 0-2.28 1.31v-1.6h-3.27V5484z" transform="translate(-1152 -5461)"/></svg>